HIERARCHY
ROOT Hips
{
	OFFSET -3.958830 18.904000 13.208200
	CHANNELS 6 Xposition Yposition Zposition Zrotation Yrotation Xrotation 
	JOINT LHipJoint
	{
		OFFSET 0.000000 0.000000 0.000000
		CHANNELS 3 Zrotation Yrotation Xrotation
		JOINT LeftUpLeg
		{
			OFFSET 1.800000 -1.400000 0.085000
			CHANNELS 3 Zrotation Yrotation Xrotation
			JOINT LeftLeg
			{
				OFFSET 2.215000 -6.000000 0.000000
				CHANNELS 3 Zrotation Yrotation Xrotation
				JOINT LeftFoot
				{
					OFFSET 2.500000 -6.900000 0.000000
					CHANNELS 3 Zrotation Yrotation Xrotation
					JOINT LeftToeBase
					{
						OFFSET 0.200000 -0.500000 1.950000
						CHANNELS 3 Zrotation Yrotation Xrotation
						End Site
						{
							OFFSET 0.000000 0.000000 0.000000
						}
					}
				}
			}
		}
	}
	JOINT RHipJoint
	{
		OFFSET 0.000000 0.000000 0.000000
		CHANNELS 3 Zrotation Yrotation Xrotation
		JOINT RightUpLeg
		{
			OFFSET -1.800000 -1.400000 0.085000
			CHANNELS 3 Zrotation Yrotation Xrotation
			JOINT RightLeg
			{
				OFFSET -2.215000 -6.000000 0.000000
				CHANNELS 3 Zrotation Yrotation Xrotation
				JOINT RightFoot
				{
					OFFSET -2.500000 -6.900000 0.000000
					CHANNELS 3 Zrotation Yrotation Xrotation
					JOINT RightToeBase
					{
						OFFSET -0.200000 -0.500000 1.950000
						CHANNELS 3 Zrotation Yrotation Xrotation
						End Site
						{
							OFFSET 0.000000 0.000000 0.000000
						}
					}
				}
			}
		}
	}
	JOINT LowerBack
	{
		OFFSET 0.000000 0.000000 0.000000
		CHANNELS 3 Zrotation Yrotation Xrotation
		JOINT Spine
		{
			OFFSET -0.087000 1.940000 -0.288900
			CHANNELS 3 Zrotation Yrotation Xrotation
			JOINT Spine1
			{
				OFFSET 0.000000 1.950000 0.060000
				CHANNELS 3 Zrotation Yrotation Xrotation
				JOINT Neck
				{
					OFFSET 0.000000 0.000000 0.000000
					CHANNELS 3 Zrotation Yrotation Xrotation
					JOINT Neck1
					{
						OFFSET 0.000000 1.600000 0.340000
						CHANNELS 3 Zrotation Yrotation Xrotation
						JOINT Head
						{
							OFFSET 0.000000 1.667000 -0.240000
							CHANNELS 3 Zrotation Yrotation Xrotation
							End Site
							{
								OFFSET 0.000000 0.000000 0.000000
							}
						}
					}
				}
				JOINT LeftShoulder
				{
					OFFSET 0.000000 0.000000 0.000000
					CHANNELS 3 Zrotation Yrotation Xrotation
					JOINT LeftArm
					{
						OFFSET 2.700000 1.550000 -0.730000
						CHANNELS 3 Zrotation Yrotation Xrotation
						JOINT LeftForeArm
						{
							OFFSET 5.450000 0.000000 0.000000
							CHANNELS 3 Zrotation Yrotation Xrotation
							JOINT LeftHand
							{
								OFFSET 3.450000 0.000000 0.000000
								CHANNELS 3 Zrotation Yrotation Xrotation
								JOINT LeftHandIndex1
								{
									OFFSET 0.750000 0.000000 0.000000
									CHANNELS 3 Zrotation Yrotation Xrotation
									End Site
									{
										OFFSET 0.000000 0.000000 0.000000
									}
								}
							}
						}
					}
				}
				JOINT RightShoulder
				{
					OFFSET 0.000000 0.000000 0.000000
					CHANNELS 3 Zrotation Yrotation Xrotation
					JOINT RightArm
					{
						OFFSET -2.700000 1.550000 -0.730000
						CHANNELS 3 Zrotation Yrotation Xrotation
						JOINT RightForeArm
						{
							OFFSET -5.450000 0.000000 0.000000
							CHANNELS 3 Zrotation Yrotation Xrotation
							JOINT RightHand
							{
								OFFSET -3.450000 0.000000 0.000000
								CHANNELS 3 Zrotation Yrotation Xrotation
								JOINT RightHandIndex1
								{
									OFFSET -0.750000 0.000000 0.000000
									CHANNELS 3 Zrotation Yrotation Xrotation
									End Site
									{
										OFFSET 0.000000 0.000000 0.000000
									}
								}
							}
						}
					}
				}
			}
		}
	}
}
MOTION
Frames: 10
Frame Time: 0.016667
-1.702620 13.190810 -4.490940 -62.145223 -20.316086 6.208634 -14.577359 11.377968 4.337992 -4.183990 -8.908996 -23.321013 -12.694550 14.276196 46.015157 0.779101 9.172995 1.204438 0.245110 -0.007800 0.316130 18.965436 -11.508463 3.174446 11.178447 -1.198909 -4.001559 -40.218343 3.691505 21.181296 -1.189604 -6.243890 2.093655 -0.208560 0.191540 0.510550 -5.245896 2.085128 -8.111048 15.077206 -9.656250 73.535905 -23.031337 -0.220555 14.818317 6.262849 -4.629425 -11.677361 -14.323346 12.421714 40.717807 -0.404090 5.271490 -7.149060 -0.028821 -3.744341 0.833104 -21.208653 -15.546517 -5.258617 24.415250 -8.693878 -4.671258 -3.939898 3.027672 0.522360 0.031710 0.227720 -0.019040 -13.256672 1.309119 9.244101 69.203487 -15.888162 -20.531471 133.742908 48.435878 66.676127 1.872281 -2.507861 0.073470 -0.079300 0.101530 0.035020 
-1.711350 13.265860 -4.440120 -61.698887 -28.069780 4.754494 -14.550453 11.819426 4.047756 -5.380258 -5.967458 -19.417836 -13.305663 14.475746 40.971491 0.525587 8.471557 1.397113 0.218420 -0.029210 0.382120 18.873988 -11.778295 3.242605 7.452429 0.168413 0.888017 -43.106474 5.482592 21.790462 -1.344009 -6.640069 1.958231 -0.221030 0.172010 0.547630 -5.081965 2.127354 -7.876563 9.166196 -2.394685 74.394681 -21.482219 4.365569 16.742810 5.475328 -3.768815 -12.376463 -13.264459 12.287205 42.477163 -4.615520 6.481700 -11.157930 -1.270133 -6.348446 1.598684 -20.486222 -12.737992 -6.828254 26.407731 -8.436977 -5.219057 -4.004202 2.889418 0.611250 0.046150 0.288030 -0.102560 -11.766171 5.283302 8.823805 73.398927 -10.025661 -22.742532 134.680670 49.889648 68.636985 1.965298 -2.305011 0.045850 -0.018680 0.173970 -0.014670 
-1.707950 13.309640 -4.407610 -62.215105 -31.782830 4.732386 -14.567063 12.118022 3.868234 -5.452354 -4.264396 -17.456017 -12.910596 14.503498 39.211767 0.502255 8.065178 1.484285 0.342270 0.142530 0.503640 18.800009 -11.831332 3.301588 6.194278 1.397347 3.860062 -45.636121 7.509509 23.958260 -1.525022 -7.057744 1.804733 -0.150740 0.025810 0.547820 -4.898467 1.922988 -7.734526 6.856244 1.290369 72.624045 -19.627434 7.434227 18.976351 5.059239 -2.854105 -12.985291 -11.591342 11.387967 44.902770 -6.755440 6.804290 -12.616120 -1.637134 -9.476747 3.017128 -21.799892 -10.324156 -8.110588 28.097426 -8.368563 -5.537279 -3.912685 2.985626 0.592600 -0.010560 0.372800 -0.107460 -11.320713 9.588162 8.906189 75.393159 -3.410975 -24.032930 133.530182 52.435255 68.873891 2.150937 -2.243879 0.129500 -0.076410 0.078540 -0.028770 
-1.661260 13.322110 -4.394010 -61.323278 -31.661489 6.901221 -14.575538 12.043510 4.102108 -6.762019 -5.419034 -20.270629 -11.498761 14.364856 41.652110 0.416372 8.270706 1.373747 0.427690 0.221960 0.608050 18.789861 -11.969657 2.993880 3.560360 0.820329 3.414997 -41.213947 6.521945 25.017758 -1.454754 -6.733203 1.885361 -0.072170 -0.044010 0.540730 -4.846955 1.954941 -7.718071 6.662048 1.879098 67.651310 -17.876629 8.448829 22.364168 4.018536 -1.309882 -13.676138 -8.020402 11.078358 49.573270 -8.037510 8.241760 -14.181010 -1.878410 -14.746331 5.774234 -22.026394 -7.120704 -8.620354 28.284248 -7.771004 -5.449890 -3.871763 2.970946 0.669260 -0.031090 0.423190 -0.116650 -8.668856 14.631741 9.111817 74.234833 4.791396 -24.545701 131.113789 57.501947 70.303600 2.390537 -1.912039 0.099950 -0.049900 0.048840 -0.100700 
-1.611820 13.359960 -4.418980 -57.521950 -32.688010 8.295863 -14.805274 12.206255 4.606236 -9.445931 -7.422099 -24.527414 -8.946795 14.569767 46.431675 0.541260 8.843131 1.153555 0.633600 0.367650 0.842130 18.573819 -11.805283 2.413306 -1.378674 0.799565 2.158748 -37.583504 6.061006 26.465752 -1.425206 -6.430753 1.881372 0.026200 -0.225890 0.604550 -4.216670 0.791398 -7.711087 -0.306406 6.416830 62.386103 -12.950648 10.003881 23.942835 2.176443 0.015163 -13.555702 -4.561695 10.598916 53.607259 -9.745040 10.638780 -15.568800 -2.394884 -17.434258 7.582380 -23.504347 -5.578547 -8.424616 28.557491 -6.089081 -4.994925 -3.760138 3.136203 0.727130 -0.112700 0.541150 -0.083440 -4.880108 18.950386 8.678682 68.343585 13.169046 -23.802549 121.232825 64.236858 65.616182 2.830819 -1.494092 0.156030 -0.160980 -0.104640 -0.181050 
-1.571220 13.427730 -4.461720 -55.353269 -34.196075 9.820251 -14.957637 12.265468 4.875897 -10.344009 -7.964701 -27.462045 -10.065948 16.442914 49.072169 0.644917 9.545422 0.807257 0.740410 0.546070 0.944230 18.437508 -11.684921 2.069468 -4.404707 0.765947 2.325108 -33.098033 4.838093 26.485615 -1.328214 -6.000088 1.933789 0.130090 -0.373040 0.628870 -3.824782 0.172683 -7.676322 -4.915054 9.935889 58.022198 -9.400784 11.748556 25.204633 0.461680 1.217171 -12.590773 -1.007134 9.986528 57.097965 -11.368800 12.588720 -20.306270 -4.851896 -18.623816 7.948559 -20.784532 -6.078826 -7.509950 28.066301 -4.675768 -4.461277 -3.747907 3.158558 0.754670 -0.161480 0.637830 -0.144300 0.471460 21.533476 7.239864 60.793615 20.309093 -20.329962 103.618291 71.530348 53.247799 3.646335 -0.612032 0.210970 -0.221080 -0.136690 -0.220250 
-1.546310 13.498020 -4.560990 -52.413887 -35.877513 11.517752 -15.271502 12.612371 5.111553 -11.506913 -8.301484 -31.622565 -9.062272 17.944640 52.785194 0.748499 10.447104 0.539151 0.754730 0.525320 1.060770 18.167505 -11.260485 1.670734 -6.793015 2.261386 1.318978 -32.127308 5.934950 30.443074 -1.313963 -6.186814 1.866231 0.161050 -0.356330 0.620200 -3.041205 -1.368136 -7.551390 -11.681060 15.030573 52.315122 -3.858043 14.216501 27.227973 -0.672013 2.185785 -12.139893 2.169934 9.292216 57.570708 -14.071110 14.772800 -21.091750 -6.295009 -20.505967 8.544371 -18.424517 -7.364286 -6.184228 26.672515 -2.433243 -3.758662 -3.858748 3.050855 0.764270 -0.103220 0.617600 -0.174220 3.405470 25.965954 7.383889 52.471703 25.972308 -15.392250 72.772175 81.240561 35.446240 3.066125 -1.151646 0.147740 -0.170200 -0.144290 -0.295230 
-1.513050 13.534210 -4.672880 -52.670960 -36.005791 15.301795 -15.276834 12.350804 5.276119 -11.056926 -8.229018 -37.607217 -6.552556 20.455978 62.189320 1.085424 12.379837 -0.106325 0.866100 0.660110 1.148830 18.210077 -11.168644 1.698104 -5.308626 3.731309 -0.885991 -31.904373 7.307801 34.504658 -1.426102 -6.496116 1.712477 0.247000 -0.416600 0.646550 -3.185468 -0.995736 -7.679038 -10.241146 15.242740 50.579530 -3.720807 14.642107 27.068815 -1.485653 1.245058 -11.709379 0.686053 10.397201 57.470715 -14.081290 14.828070 -24.941750 -7.737326 -21.192430 8.239685 -13.844087 -9.714385 -4.785349 24.338471 -1.070910 -3.192879 -3.881250 3.015631 0.802050 -0.136520 0.678680 -0.182250 6.482102 28.182863 6.434363 46.668450 31.641742 -17.685785 41.340629 76.224180 14.969360 1.999494 -1.912516 0.176100 -0.166770 -0.174320 -0.312570 
-1.474760 13.557870 -4.739320 -52.348902 -34.475760 17.434941 -15.229435 12.087000 5.439043 -11.967030 -8.582111 -42.817751 -1.228463 20.568124 71.978091 1.318822 13.824012 -0.528774 1.035570 0.875960 1.242780 18.294328 -11.134173 1.781191 -3.855659 4.785998 -1.337962 -30.107967 7.790950 38.673168 -1.560748 -6.763602 1.641868 0.397320 -0.459040 0.577670 -3.430203 -0.538802 -7.849246 -6.656653 14.235080 51.437087 -4.307946 14.404462 27.873173 -1.933822 -0.679965 -12.157021 -3.569909 11.660602 58.024720 -12.392530 13.037150 -28.168540 -9.222868 -23.752132 8.414076 -8.912394 -11.030528 -4.314300 22.460070 -0.050580 -2.870945 -3.845514 2.904316 0.854110 -0.202740 0.736050 -0.120830 8.877718 32.446387 6.164356 37.643818 35.217596 -20.574448 19.906619 71.271949 1.491228 1.697156 -1.791119 0.166650 -0.041490 -0.257310 -0.315210 
-1.392410 13.583690 -4.809060 -48.880871 -30.052444 18.061542 -15.281791 11.932418 5.818819 -14.487990 -10.945971 -45.447942 5.300597 18.164713 81.533880 1.527414 14.801101 -0.780599 1.145070 1.002560 1.328390 18.289363 -11.029003 1.610486 -4.584681 4.534822 -2.831489 -25.913153 6.154392 41.336321 -1.546280 -6.622255 1.671070 0.478290 -0.510150 0.532650 -3.411919 -0.672985 -8.045507 -4.526695 12.563932 54.001371 -4.826340 12.780825 27.619799 -1.149518 -1.874068 -12.928445 -6.372543 12.045369 58.436875 -11.685210 11.278820 -31.126930 -11.160715 -27.134112 8.563208 -3.349335 -11.155206 -5.563187 23.099098 -0.489216 -3.091044 -3.821425 2.830838 0.913330 -0.275040 0.797050 -0.094610 9.829492 36.443799 5.566585 29.139173 37.485903 -22.513112 2.671169 64.959587 -6.590424 1.611472 -1.519142 0.164170 0.044400 -0.311010 -0.322350 
